<svg width="100" height="100" viewBox="0 0 100 100" fill="none" xmlns="http://www.w3.org/2000/svg">
<g clip-path="url(#clip0_67_24)">
<rect width="100" height="100" fill="url(#paint0_radial_67_24)"/>
<path d="M50.264 81.92C45.5707 81.92 41.4747 80.768 37.976 78.464C34.4773 76.16 31.7467 72.9173 29.784 68.736C27.8213 64.4693 26.84 59.5627 26.84 54.016C26.84 49.0667 27.9493 44.5867 30.168 40.576C32.472 36.48 35.5013 33.1947 39.256 30.72C43.0107 28.2453 47.1067 27.008 51.544 27.008C54.9573 27.008 57.9867 27.6907 60.632 29.056C63.2773 30.4213 65.3253 32.3413 66.776 34.816C68.312 37.2053 69.08 39.9787 69.08 43.136C69.08 45.7813 67.8 47.104 65.24 47.104L38.232 47.104C37.0373 47.104 36.184 47.4453 35.672 48.128C35.2453 48.7253 35.032 49.9627 35.032 51.84C35.032 55.936 35.928 59.6907 37.72 63.104C39.512 66.432 41.9013 69.12 44.888 71.168C47.8747 73.1307 51.16 74.112 54.744 74.112C57.304 74.112 59.608 73.6427 61.656 72.704C63.7893 71.68 65.6667 70.2293 67.288 68.352C67.6293 67.9253 67.8853 67.6693 68.056 67.584C68.2267 67.4133 68.44 67.328 68.696 67.328C69.3787 67.328 69.72 67.7547 69.72 68.608C69.72 70.2293 68.952 72.0213 67.416 73.984C66.136 75.6053 64.6 77.0133 62.808 78.208C61.016 79.4027 59.0533 80.2987 56.92 80.896C54.7867 81.5787 52.568 81.92 50.264 81.92ZM38.488 43.136H50.136C52.184 43.136 53.9333 43.0933 55.384 43.008C56.8347 42.9227 58.2427 42.752 59.608 42.496C60.0347 42.4107 60.2907 42.1547 60.376 41.728C60.5467 41.216 60.632 40.5333 60.632 39.68C60.632 37.2053 59.5227 35.1147 57.304 33.408C55.1707 31.616 52.6107 30.72 49.624 30.72C47.6613 30.72 45.6987 31.3173 43.736 32.512C41.7733 33.6213 40.152 35.0293 38.872 36.736C37.592 38.4427 36.952 40.1493 36.952 41.856C36.952 42.7093 37.464 43.136 38.488 43.136Z" fill="#1A1A1A" fill-opacity="0.46"/>
<path d="M51.2184 95.0329C45.3305 95.07 39.6921 94.0814 34.3033 92.0673C28.9994 89.9673 24.2449 87.0532 20.04 83.3249C15.9205 79.5961 12.6502 75.2219 10.2292 70.2024C7.80773 65.0976 6.57844 59.6012 6.54138 53.7133C6.50164 47.3988 7.70188 41.5031 10.1421 36.0263C12.5824 30.5495 15.9656 25.7494 20.2917 21.6261C24.6178 17.5028 29.5896 14.2714 35.207 11.932C40.9097 9.5921 46.961 8.40199 53.3609 8.3617C54.8115 8.35257 56.7752 8.51088 59.252 8.83663C61.8135 9.07652 64.4183 9.40146 67.0663 9.81147C69.7996 10.2209 72.2345 10.675 74.371 11.1735C76.5923 11.5862 78.1309 12.0032 78.9869 12.4245C79.4147 12.5925 79.672 12.8042 79.7589 13.0596C79.9307 13.2292 80.0606 13.5271 80.1486 13.9532C80.5055 16.4257 80.8197 18.8984 81.0913 21.3714C81.3623 23.7591 81.5032 25.8062 81.514 27.5129C81.5177 28.1102 81.3081 28.7089 80.8853 29.3089C80.5471 29.823 80.1221 30.0817 79.6101 30.0849C78.7568 30.0903 78.1144 29.7103 77.6829 28.945C77.2514 28.1797 76.9052 27.4139 76.6444 26.6475C76.1238 25.2854 75.5619 24.1369 74.9587 23.2021C74.4403 22.1813 73.6653 21.0768 72.6338 19.8886C72.1175 19.2092 71.0028 18.3629 69.2897 17.3496C67.6615 16.2505 65.4367 15.2832 62.6153 14.4476C59.794 13.612 56.3354 13.2071 52.2395 13.2329C47.2903 13.264 42.7744 14.3591 38.6919 16.5182C34.6089 18.5919 31.0856 21.4728 28.1221 25.1609C25.2434 28.7631 23.0079 32.8732 21.4156 37.4914C19.9086 42.1089 19.171 46.935 19.2027 51.9696C19.2408 58.0281 20.2135 63.4408 22.1209 68.2075C24.0283 72.9743 26.5711 77.0117 29.7493 80.3198C32.9275 83.6278 36.5273 86.1225 40.5486 87.8039C44.57 89.4853 48.7139 90.3126 52.9805 90.2857C57.9297 90.2546 61.5526 89.6344 63.849 88.4253C66.2308 87.2156 67.8032 86.2243 68.5664 85.4515C69.4991 84.507 70.3441 83.179 71.1014 81.4675C71.9439 79.7555 72.3582 77.7902 72.3443 75.5716C72.3394 74.8036 72.3343 73.9929 72.329 73.1396C72.4089 72.2857 72.4462 71.4322 72.4408 70.5788C72.5208 69.725 72.5584 68.9141 72.5535 68.1461C72.5476 67.2074 72.5001 66.4397 72.411 65.8429C72.3214 65.1608 72.1475 64.6499 71.8894 64.3102C71.2008 63.3758 70.0013 62.6154 68.2909 62.0288C66.5806 61.4422 64.8712 61.0263 63.163 60.781C61.4547 60.5358 60.174 60.4159 59.3207 60.4212C58.9793 60.4234 58.466 60.2133 57.7807 59.7909C57.0953 59.3685 56.7508 58.8587 56.747 58.2614C56.7427 57.5787 57.0808 57.0646 57.7613 56.719C58.4413 56.288 58.9519 56.0715 59.2933 56.0693C61.4266 56.0559 63.2615 56.087 64.798 56.1627C66.3345 56.2383 67.9136 56.3137 69.5355 56.3889C71.1573 56.464 73.1202 56.4943 75.4242 56.4798C77.6428 56.4658 79.5195 56.3687 81.0544 56.1883C82.5893 56.008 84.5088 55.9106 86.8127 55.8961C87.154 55.8939 87.6668 56.0187 88.3511 56.2704C89.1207 56.5216 89.5082 57.0738 89.5136 57.9271C89.5173 58.5245 89.1365 59.0389 88.3712 59.4704C87.6913 59.9013 87.1809 60.1605 86.8401 60.248C84.966 60.7718 83.6482 61.5481 82.8867 62.5769C82.2099 63.5199 81.7489 64.8455 81.5037 66.5537C81.2595 68.4326 81.0993 70.0977 81.0231 71.5488C80.9469 73 80.9139 74.5363 80.9241 76.1576L80.9459 79.6135C80.9486 80.0402 81.0361 80.3809 81.2083 80.6359C81.3806 80.8908 81.5534 81.231 81.7268 81.6566C81.9854 82.0817 82.3292 82.4635 82.758 82.8021C83.1868 83.1408 83.4023 83.4808 83.4044 83.8221C83.4066 84.1634 83.3242 84.6333 83.1573 85.2317C83.0752 85.7442 82.5653 86.0888 81.6278 86.2653C81.031 86.3544 79.8396 86.8739 78.0535 87.8239C76.3522 88.6879 74.1825 89.6829 71.5442 90.8089C68.9059 91.9349 65.8825 92.8926 62.4741 93.682C59.0662 94.5568 55.3143 95.0071 51.2184 95.0329Z" fill="black"/>
</g>
<defs>
<radialGradient id="paint0_radial_67_24" cx="0" cy="0" r="1" gradientUnits="userSpaceOnUse" gradientTransform="translate(50 50) scale(59.5 58.7238)">
<stop stop-color="#FF56EB"/>
<stop offset="1" stop-color="#ADB4FF"/>
</radialGradient>
<clipPath id="clip0_67_24">
<rect width="100" height="100" fill="white"/>
</clipPath>
</defs>
</svg>
