<svg width="96" height="179" viewBox="0 0 96 179" fill="none" xmlns="http://www.w3.org/2000/svg">
<path d="M50.264 130.92C45.5707 130.92 41.4747 129.768 37.976 127.464C34.4773 125.16 31.7467 121.917 29.784 117.736C27.8213 113.469 26.84 108.563 26.84 103.016C26.84 98.0667 27.9493 93.5867 30.168 89.576C32.472 85.48 35.5013 82.1947 39.256 79.72C43.0107 77.2453 47.1067 76.008 51.544 76.008C54.9573 76.008 57.9867 76.6907 60.632 78.056C63.2773 79.4213 65.3253 81.3413 66.776 83.816C68.312 86.2053 69.08 88.9787 69.08 92.136C69.08 94.7813 67.8 96.104 65.24 96.104L38.232 96.104C37.0373 96.104 36.184 96.4453 35.672 97.128C35.2453 97.7253 35.032 98.9627 35.032 100.84C35.032 104.936 35.928 108.691 37.72 112.104C39.512 115.432 41.9013 118.12 44.888 120.168C47.8747 122.131 51.16 123.112 54.744 123.112C57.304 123.112 59.608 122.643 61.656 121.704C63.7893 120.68 65.6667 119.229 67.288 117.352C67.6293 116.925 67.8853 116.669 68.056 116.584C68.2267 116.413 68.44 116.328 68.696 116.328C69.3787 116.328 69.72 116.755 69.72 117.608C69.72 119.229 68.952 121.021 67.416 122.984C66.136 124.605 64.6 126.013 62.808 127.208C61.016 128.403 59.0533 129.299 56.92 129.896C54.7867 130.579 52.568 130.92 50.264 130.92ZM38.488 92.136H50.136C52.184 92.136 53.9333 92.0933 55.384 92.008C56.8347 91.9227 58.2427 91.752 59.608 91.496C60.0347 91.4107 60.2907 91.1547 60.376 90.728C60.5467 90.216 60.632 89.5333 60.632 88.68C60.632 86.2053 59.5227 84.1147 57.304 82.408C55.1707 80.616 52.6107 79.72 49.624 79.72C47.6613 79.72 45.6987 80.3173 43.736 81.512C41.7733 82.6213 40.152 84.0293 38.872 85.736C37.592 87.4427 36.952 89.1493 36.952 90.856C36.952 91.7093 37.464 92.136 38.488 92.136Z" fill="#1A1A1A" fill-opacity="0.46"/>
<path d="M50.9983 142.065C45.1104 142.102 39.472 141.114 34.0833 139.1C28.7793 137 24.0248 134.086 19.8199 130.357C15.7004 126.629 12.4301 122.254 10.0092 117.235C7.58764 112.13 6.35835 106.634 6.32129 100.746C6.28154 94.4312 7.48179 88.5356 9.92203 83.0588C12.3623 77.582 15.7455 72.7819 20.0716 68.6586C24.3977 64.5353 29.3695 61.3039 34.9869 58.9645C40.6896 56.6246 46.7409 55.4345 53.1408 55.3942C54.5914 55.385 56.5551 55.5434 59.0319 55.8691C61.5934 56.109 64.1982 56.4339 66.8462 56.8439C69.5795 57.2534 72.0144 57.7074 74.1509 58.206C76.3722 58.6187 77.9108 59.0357 78.7668 59.457C79.1946 59.6249 79.4519 59.8367 79.5389 60.0921C79.7106 60.2617 79.8405 60.5596 79.9285 60.9857C80.2854 63.4581 80.5996 65.9309 80.8712 68.4039C81.1422 70.7916 81.2831 72.8387 81.2939 74.5454C81.2976 75.1427 81.0881 75.7413 80.6652 76.3413C80.3271 76.8555 79.902 77.1142 79.39 77.1174C78.5367 77.1228 77.8943 76.7428 77.4628 75.9775C77.0313 75.2122 76.6852 74.4464 76.4243 73.68C75.9037 72.3179 75.3418 71.1694 74.7386 70.2345C74.2202 69.2138 73.4452 68.1093 72.4137 66.9211C71.8974 66.2417 70.7827 65.3953 69.0696 64.3821C67.4414 63.283 65.2166 62.3156 62.3953 61.48C59.5739 60.6445 56.1153 60.2396 52.0194 60.2653C47.0702 60.2965 42.5543 61.3916 38.4718 63.5507C34.3888 65.6244 30.8655 68.5053 27.902 72.1934C25.0233 75.7956 22.7878 79.9057 21.1955 84.5238C19.6885 89.1414 18.9509 93.9675 18.9826 99.002C19.0207 105.061 19.9935 110.473 21.9008 115.24C23.8082 120.007 26.351 124.044 29.5292 127.352C32.7074 130.66 36.3072 133.155 40.3285 134.836C44.3499 136.518 48.4938 137.345 52.7604 137.318C57.7096 137.287 61.3325 136.667 63.6289 135.458C66.0107 134.248 67.5831 133.257 68.3463 132.484C69.279 131.539 70.124 130.211 70.8813 128.5C71.7238 126.788 72.1381 124.823 72.1242 122.604C72.1193 121.836 72.1142 121.025 72.1089 120.172C72.1888 119.318 72.2261 118.465 72.2208 117.611C72.3007 116.757 72.3383 115.947 72.3334 115.179C72.3275 114.24 72.28 113.472 72.1909 112.875C72.1013 112.193 71.9274 111.682 71.6693 111.343C70.9807 110.408 69.7813 109.648 68.0709 109.061C66.3605 108.475 64.6511 108.059 62.9429 107.814C61.2347 107.568 59.9539 107.448 59.1006 107.454C58.7592 107.456 58.2459 107.246 57.5606 106.823C56.8752 106.401 56.5307 105.891 56.5269 105.294C56.5226 104.611 56.8607 104.097 57.5412 103.751C58.2212 103.32 58.7318 103.104 59.0732 103.102C61.2065 103.088 63.0414 103.119 64.5779 103.195C66.1144 103.271 67.6935 103.346 69.3154 103.421C70.9372 103.496 72.9001 103.527 75.2041 103.512C77.4227 103.498 79.2995 103.401 80.8344 103.221C82.3692 103.04 84.2887 102.943 86.5926 102.929C86.934 102.926 87.4467 103.051 88.131 103.303C88.9006 103.554 89.2881 104.106 89.2935 104.96C89.2972 105.557 88.9165 106.071 88.1512 106.503C87.4712 106.934 86.9608 107.193 86.62 107.28C84.7459 107.804 83.4281 108.581 82.6666 109.609C81.9899 110.552 81.5289 111.878 81.2836 113.586C81.0394 115.465 80.8792 117.13 80.803 118.581C80.7268 120.032 80.6938 121.569 80.704 123.19L80.7258 126.646C80.7285 127.073 80.816 127.413 80.9882 127.668C81.1605 127.923 81.3333 128.264 81.5067 128.689C81.7653 129.114 82.1091 129.496 82.5379 129.835C82.9667 130.173 83.1822 130.513 83.1843 130.855C83.1865 131.196 83.1041 131.666 82.9372 132.264C82.8551 132.777 82.3453 133.121 81.4077 133.298C80.8109 133.387 79.6195 133.906 77.8334 134.856C76.1322 135.72 73.9624 136.715 71.3241 137.841C68.6858 138.967 65.6624 139.925 62.254 140.715C58.8461 141.589 55.0942 142.04 50.9983 142.065Z" fill="black"/>
</svg>
